<?xml version="1.0" encoding="UTF-8" standalone="no"?><!DOCTYPE svg PUBLIC "-//W3C//DTD SVG 1.1//EN" "http://www.w3.org/Graphics/SVG/1.1/DTD/svg11.dtd"><svg width="100%" height="100%" viewBox="0 0 1024 559" version="1.1" xmlns="http://www.w3.org/2000/svg" xmlns:xlink="http://www.w3.org/1999/xlink" xml:space="preserve" xmlns:serif="http://www.serif.com/" style="fill-rule:evenodd;clip-rule:evenodd;stroke-linejoin:round;stroke-miterlimit:2;"><path d="M494.245,313.124l0,-238.426l-74.282,0l0,-26.089l176.827,0l0,26.089l-73.919,0l0,238.426l-28.626,0Z" style="fill:#fefefe;fill-rule:nonzero;"/><path d="M725.786,316.748c-23.674,0 -41.972,-6.764 -54.896,-20.292c-12.924,-13.528 -19.386,-31.766 -19.386,-54.715l0,-193.132l28.626,0l0,193.132c0,15.219 3.865,27.237 11.595,36.054c7.73,8.817 19.084,13.226 34.061,13.226c14.977,0 26.331,-4.409 34.061,-13.226c7.73,-8.817 11.595,-20.835 11.595,-36.054l0,-193.132l28.626,0l0,193.132c0,23.19 -6.402,41.489 -19.205,54.896c-12.803,13.407 -31.162,20.11 -55.077,20.11Z" style="fill:#fefefe;fill-rule:nonzero;"/><path d="M862.392,313.124l0,-264.515l42.395,0l38.047,119.575l38.771,-119.575l42.395,0l0,264.515l-27.901,0l0,-134.069c0,-12.078 0.121,-25.364 0.362,-39.858c0.242,-14.494 0.725,-28.867 1.449,-43.12c0.725,-14.252 1.449,-26.935 2.174,-38.047l-44.569,136.968l-26.089,0l-43.844,-134.432c1.691,15.702 2.899,33.759 3.623,54.171c0.725,20.412 1.087,41.851 1.087,64.317l0,134.069l-27.901,0Z" style="fill:#fefefe;fill-rule:nonzero;"/><path d="M-0,313.124l0,-264.515l65.585,0c16.91,0 31.585,3.261 44.025,9.783c12.441,6.522 22.043,15.762 28.807,27.72c6.764,11.958 10.146,25.908 10.146,41.851l0,105.444c0,16.185 -3.382,30.256 -10.146,42.214c-6.764,11.958 -16.366,21.197 -28.807,27.72c-12.441,6.522 -27.116,9.783 -44.025,9.783l-65.585,0Zm28.626,-25.727l36.96,0c16.668,0 29.894,-4.831 39.677,-14.494c9.783,-9.663 14.675,-22.828 14.675,-39.496l0,-105.444c0,-16.427 -4.892,-29.471 -14.675,-39.134c-9.783,-9.663 -23.009,-14.494 -39.677,-14.494l-36.96,0l0,213.062Z" style="fill:#fefefe;fill-rule:nonzero;"/><path d="M0,474.401l0,-116.02l37.985,0c7.523,0 14.065,1.43 19.628,4.291c5.563,2.861 9.854,6.914 12.874,12.158c3.02,5.245 4.53,11.417 4.53,18.516c0,7.099 -1.536,13.271 -4.609,18.516c-3.073,5.245 -7.364,9.298 -12.874,12.158c-5.51,2.861 -12.026,4.291 -19.549,4.291l-20.82,0l0,46.09l-17.165,0Zm17.165,-61.348l20.82,0c5.933,0 10.675,-1.801 14.224,-5.404c3.549,-3.602 5.324,-8.37 5.324,-14.304c0,-5.933 -1.775,-10.701 -5.324,-14.304c-3.549,-3.602 -8.291,-5.404 -14.224,-5.404l-20.82,0l0,39.415Z" style="fill:#fefefe;fill-rule:nonzero;"/><path d="M95.518,474.401l0,-116.02l36.237,0c7.205,0 13.536,1.404 18.992,4.212c5.457,2.808 9.695,6.755 12.715,11.84c3.02,5.086 4.53,11.072 4.53,17.959c0,7.735 -1.96,14.463 -5.88,20.184c-3.92,5.722 -9.165,9.748 -15.734,12.079l23.204,49.746l-18.754,0l-21.615,-47.68l-16.688,0l0,47.68l-17.006,0Zm17.006,-62.937l19.231,0c5.722,0 10.278,-1.695 13.668,-5.086c3.391,-3.391 5.086,-7.947 5.086,-13.668c0,-5.828 -1.722,-10.463 -5.165,-13.907c-3.444,-3.444 -7.973,-5.165 -13.589,-5.165l-19.231,0l0,37.826Z" style="fill:#fefefe;fill-rule:nonzero;"/><path d="M225.048,475.99c-10.807,0 -19.337,-3.099 -25.588,-9.298c-6.251,-6.198 -9.377,-14.913 -9.377,-26.144l0,-48.315c0,-11.231 3.126,-19.946 9.377,-26.144c6.251,-6.198 14.781,-9.298 25.588,-9.298c10.807,0 19.337,3.099 25.588,9.298c6.251,6.198 9.377,14.86 9.377,25.985l0,48.474c0,11.231 -3.126,19.946 -9.377,26.144c-6.251,6.198 -14.781,9.298 -25.588,9.298Zm0,-15.257c5.722,0 10.119,-1.589 13.191,-4.768c3.073,-3.179 4.609,-7.788 4.609,-13.827l0,-51.494c0,-6.039 -1.51,-10.648 -4.53,-13.827c-3.02,-3.179 -7.443,-4.768 -13.271,-4.768c-5.828,0 -10.251,1.589 -13.271,4.768c-3.02,3.179 -4.53,7.788 -4.53,13.827l0,51.494c0,6.039 1.536,10.648 4.609,13.827c3.073,3.179 7.47,4.768 13.191,4.768Z" style="fill:#fefefe;fill-rule:nonzero;"/><path d="M311.825,474.401l0,-100.445l-30.992,0l0,-15.575l79.307,0l0,15.575l-31.151,0l0,100.445l-17.165,0Z" style="fill:#fefefe;fill-rule:nonzero;"/><path d="M415.767,475.99c-10.807,0 -19.337,-3.099 -25.588,-9.298c-6.251,-6.198 -9.377,-14.913 -9.377,-26.144l0,-48.315c0,-11.231 3.126,-19.946 9.377,-26.144c6.251,-6.198 14.781,-9.298 25.588,-9.298c10.807,0 19.337,3.099 25.588,9.298c6.251,6.198 9.377,14.86 9.377,25.985l0,48.474c0,11.231 -3.126,19.946 -9.377,26.144c-6.251,6.198 -14.781,9.298 -25.588,9.298Zm0,-15.257c5.722,0 10.119,-1.589 13.191,-4.768c3.073,-3.179 4.609,-7.788 4.609,-13.827l0,-51.494c0,-6.039 -1.51,-10.648 -4.53,-13.827c-3.02,-3.179 -7.443,-4.768 -13.271,-4.768c-5.828,0 -10.251,1.589 -13.271,4.768c-3.02,3.179 -4.53,7.788 -4.53,13.827l0,51.494c0,6.039 1.536,10.648 4.609,13.827c3.073,3.179 7.47,4.768 13.191,4.768Z" style="fill:#fefefe;fill-rule:nonzero;"/><path d="M502.544,474.401l0,-100.445l-30.992,0l0,-15.575l79.307,0l0,15.575l-31.151,0l0,100.445l-17.165,0Z" style="fill:#fefefe;fill-rule:nonzero;"/><path d="M597.903,474.401l0,-42.753l-34.488,-73.268l18.118,0l20.184,43.865c1.377,2.861 2.49,5.563 3.338,8.106c0.848,2.543 1.43,4.45 1.748,5.722c0.318,-1.271 0.901,-3.179 1.748,-5.722c0.848,-2.543 1.907,-5.245 3.179,-8.106l20.025,-43.865l17.8,0l-34.488,73.268l0,42.753l-17.165,0Z" style="fill:#fefefe;fill-rule:nonzero;"/><path d="M667.515,474.401l0,-116.02l37.985,0c7.523,0 14.065,1.43 19.628,4.291c5.563,2.861 9.854,6.914 12.874,12.158c3.02,5.245 4.53,11.417 4.53,18.516c0,7.099 -1.536,13.271 -4.609,18.516c-3.073,5.245 -7.364,9.298 -12.874,12.158c-5.51,2.861 -12.026,4.291 -19.549,4.291l-20.82,0l0,46.09l-17.165,0Zm17.165,-61.348l20.82,0c5.933,0 10.675,-1.801 14.224,-5.404c3.549,-3.602 5.324,-8.37 5.324,-14.304c0,-5.933 -1.775,-10.701 -5.324,-14.304c-3.549,-3.602 -8.291,-5.404 -14.224,-5.404l-20.82,0l0,39.415Z" style="fill:#fefefe;fill-rule:nonzero;"/><path d="M765.099,474.401l0,-15.575l23.363,0l0,-84.87l-23.363,0l0,-15.575l64.368,0l0,15.575l-23.522,0l0,84.87l23.522,0l0,15.575l-64.368,0Z" style="fill:#fefefe;fill-rule:nonzero;"/><path d="M857.757,474.401l0,-116.02l21.774,0l33.694,96.472c-0.212,-2.967 -0.477,-6.569 -0.795,-10.807c-0.318,-4.238 -0.556,-8.635 -0.715,-13.191c-0.159,-4.556 -0.238,-8.741 -0.238,-12.556l0,-59.917l15.893,0l0,116.02l-21.615,0l-33.694,-96.472c0.212,2.861 0.45,6.331 0.715,10.41c0.265,4.079 0.503,8.344 0.715,12.794c0.212,4.45 0.318,8.582 0.318,12.397l0,60.871l-16.052,0Z" style="fill:#fefefe;fill-rule:nonzero;"/><path d="M988.558,475.99c-10.913,0 -19.575,-3.046 -25.985,-9.139c-6.41,-6.092 -9.615,-14.33 -9.615,-24.714l0,-51.494c0,-10.49 3.205,-18.754 9.615,-24.793c6.41,-6.039 15.072,-9.059 25.985,-9.059c10.807,0 19.416,3.046 25.826,9.139c6.41,6.092 9.615,14.33 9.615,24.714l-17.165,0c0,-6.039 -1.616,-10.648 -4.847,-13.827c-3.232,-3.179 -7.708,-4.768 -13.43,-4.768c-5.828,0 -10.357,1.589 -13.589,4.768c-3.232,3.179 -4.847,7.735 -4.847,13.668l0,51.653c0,6.039 1.616,10.675 4.847,13.907c3.232,3.232 7.761,4.847 13.589,4.847c5.722,0 10.198,-1.616 13.43,-4.847c3.232,-3.232 4.847,-7.867 4.847,-13.907l0,-14.304l-21.615,0l0,-15.257l38.779,0l0,29.561c0,10.384 -3.205,18.622 -9.615,24.714c-6.41,6.092 -15.019,9.139 -25.826,9.139Z" style="fill:#fefefe;fill-rule:nonzero;"/><g><path d="M307.583,310.193c-4.632,3.554 -4.854,3.44 -18.787,-9.636c-6.76,-6.34 -21.999,-21.106 -33.864,-32.804c-11.871,-11.698 -24.006,-23.419 -26.973,-26.038c-2.96,-2.619 -14.904,-14.214 -26.535,-25.768c-19.302,-19.176 -21.13,-21.16 -20.974,-22.802l0.174,-1.798l37.154,-0.312l5.094,5.801c6.754,7.689 10.511,10.859 11.865,10.008c1.3,-0.803 3.296,-6.31 5.519,-15.197c0.288,-1.151 1.103,-3.985 1.81,-6.292c0.713,-2.307 1.51,-5.136 1.78,-6.292c0.264,-1.157 0.761,-2.906 1.103,-3.895c0.342,-0.989 0.881,-2.739 1.199,-3.895c0.318,-1.157 1.504,-4.794 2.637,-8.09c2.571,-7.473 4.746,-14.58 7.329,-23.97c0.539,-1.978 1.24,-4.063 1.552,-4.638c0.312,-0.569 0.563,-1.444 0.563,-1.942c0,-0.497 0.509,-2.457 1.133,-4.357c0.617,-1.894 1.588,-5.064 2.151,-7.041c0.563,-1.978 1.402,-4.447 1.864,-5.483c0.467,-1.037 0.845,-2.259 0.845,-2.715c0,-0.455 0.683,-2.972 1.516,-5.603c2.187,-6.903 3.781,-12.099 4.872,-15.862c0.521,-1.816 1.187,-3.757 1.468,-4.327c0.288,-0.563 0.779,-2.049 1.103,-3.296c1.834,-7.119 2.211,-8.378 2.888,-9.564c0.402,-0.725 0.737,-1.99 0.737,-2.817c0,-0.821 0.24,-1.648 0.533,-1.828c0.294,-0.18 0.701,-1.073 0.911,-1.984c0.785,-3.452 4.087,-13.747 5.184,-16.186l1.145,-2.547l21.466,0c11.44,-0.012 14.958,-0.018 16.54,1.732c0.839,0.929 1.133,2.361 1.78,4.56c0.581,1.978 1.336,4.405 1.678,5.393c0.342,0.989 0.845,2.745 1.115,3.895c0.276,1.157 1.169,4.123 1.996,6.592c1.354,4.063 3.841,12.039 6.256,20.075c0.497,1.648 1.24,3.937 1.66,5.094c0.413,1.157 1.612,4.926 2.655,8.39c1.043,3.458 2.283,7.179 2.751,8.258c0.467,1.085 0.851,2.397 0.851,2.918c0,0.887 1.025,4.369 2.709,9.199c0.402,1.157 1.199,3.715 1.768,5.693c0.575,1.978 1.42,4.686 1.882,6.011c0.455,1.33 0.833,2.87 0.833,3.428c0,0.551 0.378,1.894 0.839,2.978c0.455,1.079 1.57,4.393 2.469,7.359c0.899,2.966 2.103,6.88 2.673,8.689c0.575,1.81 1.648,5.321 2.379,7.79c0.737,2.469 1.558,5.034 1.828,5.693c0.264,0.659 1.336,4.033 2.379,7.491c2.193,7.293 7.916,25.259 8.252,25.918c0.485,0.959 3.11,-1.133 10.062,-8.012l7.209,-7.137l18.559,0.162l18.559,0.156l0.198,2.055c0.186,1.966 -0.407,2.655 -13.819,15.88c-25.702,25.349 -67.165,65.541 -75.081,72.78c-2.301,2.097 -9.307,8.863 -15.569,15.023c-6.262,6.16 -12.501,12.057 -13.867,13.106Zm-8.03,-38.916c1.528,1.103 3.242,1.846 3.997,1.75c0.797,-0.108 9.48,-8.264 21.891,-20.555l20.579,-20.375l-0.108,-3.542c-0.06,-1.954 -0.509,-4.381 -1.001,-5.393c-0.485,-1.019 -1.354,-3.602 -1.93,-5.747c-0.569,-2.145 -1.768,-6.19 -2.655,-8.989c-0.887,-2.799 -2.097,-6.844 -2.679,-8.989c-1.264,-4.638 -3.146,-10.613 -3.865,-12.285c-0.509,-1.181 -2.829,-8.839 -4.626,-15.281c-1.157,-4.153 -2.241,-7.85 -3.422,-11.686c-0.509,-1.648 -1.63,-5.423 -2.493,-8.39c-0.863,-2.966 -1.786,-5.933 -2.055,-6.592c-0.264,-0.659 -1.079,-3.224 -1.804,-5.693c-0.731,-2.469 -1.57,-5.112 -1.876,-5.873c-0.306,-0.755 -0.551,-1.93 -0.551,-2.607c0,-0.671 -0.378,-2.079 -0.839,-3.116c-0.467,-1.037 -1.432,-4.315 -2.151,-7.281c-1.498,-6.154 -2.529,-9.618 -4.632,-15.581c-0.815,-2.307 -1.684,-5.274 -1.936,-6.592c-0.246,-1.318 -0.743,-3.068 -1.097,-3.895c-0.36,-0.827 -1.115,-3.116 -1.684,-5.094c-1.276,-4.435 -1.87,-5.178 -2.349,-2.93c-0.198,0.953 -0.755,2.619 -1.228,3.697c-0.473,1.085 -0.863,2.517 -0.863,3.188c0,0.671 -0.318,1.804 -0.707,2.529c-0.384,0.719 -0.899,2.247 -1.139,3.404c-0.24,1.157 -0.719,2.906 -1.073,3.895c-0.785,2.217 -5.178,16.977 -7.491,25.169c-2.793,9.894 -2.481,8.863 -10.056,33.559c-1.013,3.296 -2.199,7.203 -2.637,8.689c-0.437,1.486 -1.636,5.531 -2.661,8.989c-1.031,3.458 -2.259,7.641 -2.733,9.289c-1.384,4.806 -8.33,27.452 -9.283,30.263c-1.097,3.23 -2.373,9.181 -2.355,10.984c0.012,1.678 2.145,4.057 18.427,20.531c10.128,10.247 19.614,19.494 21.082,20.549Z" style="fill:#dd8e0d;fill-rule:nonzero;"/></g></svg>