<svg xmlns="http://www.w3.org/2000/svg" width="460" height="330" viewBox="0 0 460 330" role="img" aria-label="Datum Prototyping"><title>Datum Prototyping</title><g fill="#FFFFFF"><path d="M302 148L329 143L336 174L305 180Z" transform="rotate(-78 178 166)"/><path d="M302 148L329 143L336 174L305 180Z" transform="rotate(-52 178 166)"/><path d="M302 148L329 143L336 174L305 180Z" transform="rotate(-26 178 166)"/><path d="M302 148L329 143L336 174L305 180Z" transform="rotate(0 178 166)"/><path d="M302 148L329 143L336 174L305 180Z" transform="rotate(26 178 166)"/><path d="M302 148L329 143L336 174L305 180Z" transform="rotate(52 178 166)"/><path d="M302 148L329 143L336 174L305 180Z" transform="rotate(78 178 166)"/><path d="M188 21A146 146 0 0 1 204 310L200 285A121 121 0 0 0 186 46Z"/></g><g fill="none" stroke="#FFFFFF" stroke-width="13"><path d="M71 76A127 127 0 0 1 174 39"/><path d="M191 65A104 104 0 0 1 246 249"/></g><path d="M37 129H70V187C70 229 98 257 141 257S212 229 212 187V137H244V190C244 252 202 291 141 291S37 252 37 190Z" fill="#FFFFFF"/><path d="M82 205C88 236 109 247 141 247S193 233 201 206" fill="none" stroke="#FFFFFF" stroke-width="14"/><path d="M37 121H72V143H37ZM78 145H92V165H78ZM117 145H204V162H117Z" fill="#FFFFFF"/><rect x="210" y="128" width="45" height="53" rx="4" fill="#FFFFFF"/><path d="M219 137H246V172H219Z" fill="#FFFFFF"/><path d="M263 138H296L313 129H372V178H313L296 169H263Z" fill="#FFFFFF"/><rect x="313" y="129" width="12" height="49" fill="#FFFFFF"/><path d="M381 143H399V165H381ZM406 137H432V171H406Z" fill="#FFFFFF"/></svg>