<svg xmlns="http://www.w3.org/2000/svg" viewBox="0 0 160 160" role="img" aria-labelledby="title desc">
  <title id="title">Datum Kernel</title><desc id="desc">Et flerlaget D som en CAM-værktøjsbane omkring et XYZ-datum.</desc>
  <g fill="none" stroke-linecap="square" stroke-linejoin="miter"><path d="M34 24v112h37c40 0 66-22 66-56S111 24 71 24H34Z" stroke="#F4F4EF" stroke-width="6"/><path d="M49 40v80h22c30 0 49-15 49-40S101 40 71 40H49Z" stroke="#FF642E" stroke-width="3"/><path d="M64 56v48h8c20 0 32-9 32-24S92 56 72 56H64Z" stroke="#D8F15B" stroke-width="3"/><path d="M12 80h44M34 148V66" stroke="#66737A" stroke-width="2"/><path d="M16 72v16M26 75v10M42 75v10" stroke="#66737A" stroke-width="1.5"/></g>
  <circle cx="34" cy="80" r="6" fill="#FF642E"/><circle cx="64" cy="80" r="4" fill="#D8F15B"/><path d="M27 149h14l-7 10-7-10Z" fill="#FF642E"/>
  <g fill="#8B969B" font-family="Arial,Helvetica,sans-serif" font-size="8" font-weight="700"><text x="7" y="68">X0</text><text x="41" y="154">Z0</text><text x="128" y="145">DK-01</text></g>
</svg>
