<?xml version="1.0" encoding="UTF-8" standalone="no"?><!DOCTYPE svg PUBLIC "-//W3C//DTD SVG 1.1//EN" "http://www.w3.org/Graphics/SVG/1.1/DTD/svg11.dtd"><svg width="100%" height="100%" viewBox="0 0 500 500" version="1.1" xmlns="http://www.w3.org/2000/svg" xmlns:xlink="http://www.w3.org/1999/xlink" xml:space="preserve" xmlns:serif="http://www.serif.com/" style="fill-rule:evenodd;clip-rule:evenodd;stroke-linejoin:round;stroke-miterlimit:2;"><g><path d="M265.36,472.82c-7.73,5.93 -8.1,5.74 -31.35,-16.08c-11.28,-10.58 -36.71,-35.22 -56.51,-54.74c-19.81,-19.52 -40.06,-39.08 -45.01,-43.45c-4.94,-4.37 -24.87,-23.72 -44.28,-43c-32.21,-32 -35.26,-35.31 -35,-38.05l0.29,-3l62,-0.52l8.5,9.68c11.27,12.83 17.54,18.12 19.8,16.7c2.17,-1.34 5.5,-10.53 9.21,-25.36c0.48,-1.92 1.84,-6.65 3.02,-10.5c1.19,-3.85 2.52,-8.57 2.97,-10.5c0.44,-1.93 1.27,-4.85 1.84,-6.5c0.57,-1.65 1.47,-4.57 2,-6.5c0.53,-1.93 2.51,-8 4.4,-13.5c4.29,-12.47 7.92,-24.33 12.23,-40c0.9,-3.3 2.07,-6.78 2.59,-7.74c0.52,-0.95 0.94,-2.41 0.94,-3.24c0,-0.83 0.85,-4.1 1.89,-7.27c1.03,-3.16 2.65,-8.45 3.59,-11.75c0.94,-3.3 2.34,-7.42 3.11,-9.15c0.78,-1.73 1.41,-3.77 1.41,-4.53c0,-0.76 1.14,-4.96 2.53,-9.35c3.65,-11.52 6.31,-20.19 8.13,-26.47c0.87,-3.03 1.98,-6.27 2.45,-7.22c0.48,-0.94 1.3,-3.42 1.84,-5.5c3.06,-11.88 3.69,-13.98 4.82,-15.96c0.67,-1.21 1.23,-3.32 1.23,-4.7c0,-1.37 0.4,-2.75 0.89,-3.05c0.49,-0.3 1.17,-1.79 1.52,-3.31c1.31,-5.76 6.82,-22.94 8.65,-27.01l1.91,-4.25l35.82,0c19.09,-0.02 24.96,-0.03 27.6,2.89c1.4,1.55 1.89,3.94 2.97,7.61c0.97,3.3 2.23,7.35 2.8,9c0.57,1.65 1.41,4.58 1.86,6.5c0.46,1.93 1.95,6.88 3.33,11c2.26,6.78 6.41,20.09 10.44,33.5c0.83,2.75 2.07,6.57 2.77,8.5c0.69,1.93 2.69,8.22 4.43,14c1.74,5.77 3.81,11.98 4.59,13.78c0.78,1.81 1.42,4 1.42,4.87c0,1.48 1.71,7.29 4.52,15.35c0.67,1.93 2,6.2 2.95,9.5c0.96,3.3 2.37,7.82 3.14,10.03c0.76,2.22 1.39,4.79 1.39,5.72c0,0.92 0.63,3.16 1.4,4.97c0.76,1.8 2.62,7.33 4.12,12.28c1.5,4.95 3.51,11.48 4.46,14.5c0.96,3.02 2.75,8.88 3.97,13c1.23,4.12 2.6,8.4 3.05,9.5c0.44,1.1 2.23,6.73 3.97,12.5c3.66,12.17 13.21,42.15 13.77,43.25c0.81,1.6 5.19,-1.89 16.79,-13.37l12.03,-11.91l30.97,0.27l30.97,0.26l0.33,3.43c0.31,3.28 -0.68,4.43 -23.06,26.5c-42.89,42.3 -112.08,109.37 -125.29,121.45c-3.84,3.5 -15.53,14.79 -25.98,25.07c-10.45,10.28 -20.86,20.12 -23.14,21.87Zm-13.4,-64.94c2.55,1.84 5.41,3.08 6.67,2.92c1.33,-0.18 15.82,-13.79 36.53,-34.3l34.34,-34l-0.18,-5.91c-0.1,-3.26 -0.85,-7.31 -1.67,-9c-0.81,-1.7 -2.26,-6.01 -3.22,-9.59c-0.95,-3.58 -2.95,-10.33 -4.43,-15c-1.48,-4.67 -3.5,-11.42 -4.47,-15c-2.11,-7.74 -5.25,-17.71 -6.45,-20.5c-0.85,-1.97 -4.72,-14.75 -7.72,-25.5c-1.93,-6.93 -3.74,-13.1 -5.71,-19.5c-0.85,-2.75 -2.72,-9.05 -4.16,-14c-1.44,-4.95 -2.98,-9.9 -3.43,-11c-0.44,-1.1 -1.8,-5.38 -3.01,-9.5c-1.22,-4.12 -2.62,-8.53 -3.13,-9.8c-0.51,-1.26 -0.92,-3.22 -0.92,-4.35c0,-1.12 -0.63,-3.47 -1.4,-5.2c-0.78,-1.73 -2.39,-7.2 -3.59,-12.15c-2.5,-10.27 -4.22,-16.05 -7.73,-26c-1.36,-3.85 -2.81,-8.8 -3.23,-11c-0.41,-2.2 -1.24,-5.12 -1.83,-6.5c-0.6,-1.38 -1.86,-5.2 -2.81,-8.5c-2.13,-7.4 -3.12,-8.64 -3.92,-4.89c-0.33,1.59 -1.26,4.37 -2.05,6.17c-0.79,1.81 -1.44,4.2 -1.44,5.32c0,1.12 -0.53,3.01 -1.18,4.22c-0.64,1.2 -1.5,3.75 -1.9,5.68c-0.4,1.93 -1.2,4.85 -1.79,6.5c-1.31,3.7 -8.64,28.33 -12.5,42c-4.66,16.51 -4.14,14.79 -16.78,56c-1.69,5.5 -3.67,12.02 -4.4,14.5c-0.73,2.48 -2.73,9.23 -4.44,15c-1.72,5.77 -3.77,12.75 -4.56,15.5c-2.31,8.02 -13.9,45.81 -15.49,50.5c-1.83,5.39 -3.96,15.32 -3.93,18.33c0.02,2.8 3.58,6.77 30.75,34.26c16.9,17.1 32.73,32.53 35.18,34.29Z" style="fill:#dd8e0d;fill-rule:nonzero;"/></g></svg>