<?xml version="1.0" encoding="UTF-8" standalone="no"?><!DOCTYPE svg PUBLIC "-//W3C//DTD SVG 1.1//EN" "http://www.w3.org/Graphics/SVG/1.1/DTD/svg11.dtd"><svg width="100%" height="100%" viewBox="0 0 600 600" version="1.1" xmlns="http://www.w3.org/2000/svg" xmlns:xlink="http://www.w3.org/1999/xlink" xml:space="preserve" xmlns:serif="http://www.serif.com/" style="fill-rule:evenodd;clip-rule:evenodd;stroke-linecap:square;stroke-miterlimit:1.5;"><rect id="Logo-svg" serif:id="Logo svg" x="0" y="0" width="600" height="600" style="fill:none;"/><g><path d="M182.2,369.921L288.833,369.921C374.764,369.921 434.134,310.16 434.134,233.213L434.134,232.431C434.134,155.484 374.764,96.504 288.833,96.504L182.2,96.504L182.2,369.921ZM242.352,315.628L242.352,150.797L288.833,150.797C338.048,150.797 371.248,184.779 371.248,233.213L371.248,233.994C371.248,282.428 338.048,315.628 288.833,315.628L242.352,315.628Z" style="fill-rule:nonzero;"/><rect x="133.167" y="58.213" width="350" height="350" style="fill:rgb(235,235,235);fill-opacity:0;stroke:black;stroke-width:20.83px;"/><g><rect x="290" y="398.213" width="20" height="64.866" style="stroke:black;stroke-opacity:0;stroke-width:20.83px;"/></g><path d="M247.462,483.91L352.538,483.91L326.269,530.819L273.731,530.819L247.462,483.91Z" style="fill:rgb(255,106,26);stroke:black;stroke-opacity:0;stroke-width:20.83px;"/></g></svg>