<?xml version="1.0" encoding="UTF-8" standalone="no"?>
<!DOCTYPE svg PUBLIC "-//W3C//DTD SVG 1.1//EN" "http://www.w3.org/Graphics/SVG/1.1/DTD/svg11.dtd">
<svg width="100%" height="100%" viewBox="0 0 3308 945" version="1.1" xmlns="http://www.w3.org/2000/svg" xmlns:xlink="http://www.w3.org/1999/xlink" xml:space="preserve" xmlns:serif="http://www.serif.com/" style="fill-rule:evenodd;clip-rule:evenodd;stroke-linejoin:round;stroke-miterlimit:2;">
    <g transform="matrix(0.814833,0,0,0.814833,-88.440552,-71.361995)">
        <g transform="matrix(790.764172,0,0,790.764172,222.215306,773.085183)">
            <path d="M0.511,-0C0.742,-0 0.914,-0.146 0.914,-0.341C0.914,-0.533 0.747,-0.669 0.511,-0.669L0.196,-0.669L0.063,-0.495L0.511,-0.495C0.632,-0.495 0.707,-0.436 0.707,-0.341C0.707,-0.233 0.639,-0.174 0.511,-0.174L0.27,-0.174L0.27,-0.413L0.063,-0.413L0.063,-0L0.511,-0Z" style="fill-rule:nonzero;"/>
        </g>
        <g transform="matrix(790.764172,0,0,790.764172,888.829504,773.085183)">
            <path d="M1.124,-0L0.705,-0.605C0.676,-0.647 0.635,-0.68 0.573,-0.68C0.509,-0.68 0.469,-0.645 0.44,-0.605L0.011,-0L0.253,-0L0.57,-0.447L0.759,-0.174L0.471,-0.174L0.347,-0L1.124,-0Z" style="fill-rule:nonzero;"/>
        </g>
        <g transform="matrix(790.764172,0,0,790.764172,1565.723635,773.085183)">
            <path d="M0.542,-0L0.542,-0.495L0.753,-0.495L0.889,-0.669L0.141,-0.669L0.005,-0.495L0.336,-0.495L0.336,-0L0.542,-0Z" style="fill-rule:nonzero;"/>
        </g>
        <g transform="matrix(790.764172,0,0,790.764172,2272.666805,773.085183)">
            <path d="M0.725,-0.292C0.725,-0.197 0.666,-0.163 0.495,-0.163C0.322,-0.163 0.261,-0.197 0.261,-0.292L0.261,-0.669L0.054,-0.669L0.054,-0.292C0.054,-0.082 0.191,0.011 0.495,0.011C0.796,0.011 0.931,-0.083 0.931,-0.292L0.931,-0.669L0.725,-0.669L0.725,-0.292Z" style="fill-rule:nonzero;"/>
        </g>
        <g transform="matrix(790.764172,0,0,790.764172,3018.35742,773.085183)">
            <path d="M1.246,-0L1.076,-0.587C1.06,-0.644 1.015,-0.68 0.958,-0.68C0.91,-0.68 0.871,-0.656 0.846,-0.61L0.632,-0.213L0.419,-0.61C0.393,-0.656 0.355,-0.68 0.307,-0.68C0.249,-0.68 0.206,-0.646 0.189,-0.587L0.015,-0L0.225,-0L0.334,-0.388L0.504,-0.064C0.534,-0.008 0.566,0.011 0.628,0.011C0.689,0.011 0.721,-0.008 0.752,-0.064L0.926,-0.388L1.032,-0L1.246,-0Z" style="fill-rule:nonzero;"/>
        </g>
    </g>
    <g transform="matrix(0.69303,0,0,0.69303,414.58798,286.595494)">
        <g transform="matrix(377.64378,0,0,377.64378,-441.115993,773.085183)">
            <path d="M0.844,-0.477C0.844,-0.439 0.841,-0.405 0.836,-0.376C0.831,-0.347 0.82,-0.324 0.804,-0.308C0.789,-0.292 0.769,-0.28 0.746,-0.273C0.723,-0.265 0.688,-0.261 0.641,-0.261L0.174,-0.261L0.174,-0L0.093,-0L0.093,-0.667L0.646,-0.667C0.719,-0.667 0.77,-0.654 0.799,-0.627C0.829,-0.6 0.844,-0.55 0.844,-0.477ZM0.76,-0.473C0.76,-0.52 0.751,-0.552 0.734,-0.571C0.717,-0.59 0.685,-0.599 0.638,-0.599L0.174,-0.599L0.174,-0.328L0.592,-0.328C0.659,-0.328 0.703,-0.336 0.726,-0.353C0.749,-0.37 0.76,-0.41 0.76,-0.473Z" style="fill-rule:nonzero;"/>
        </g>
        <g transform="matrix(377.64378,0,0,377.64378,-10.22444,773.085183)">
            <path d="M0.862,-0.469C0.862,-0.409 0.853,-0.368 0.836,-0.346C0.818,-0.323 0.779,-0.308 0.72,-0.299C0.765,-0.293 0.797,-0.282 0.819,-0.267C0.84,-0.251 0.85,-0.222 0.85,-0.181L0.85,-0L0.77,-0L0.77,-0.148C0.77,-0.197 0.76,-0.23 0.739,-0.246C0.717,-0.262 0.681,-0.27 0.629,-0.27L0.174,-0.27L0.174,-0L0.093,-0L0.093,-0.667L0.636,-0.667C0.717,-0.667 0.775,-0.654 0.809,-0.627C0.845,-0.6 0.862,-0.547 0.862,-0.469ZM0.778,-0.474C0.778,-0.526 0.766,-0.56 0.741,-0.576C0.716,-0.591 0.676,-0.599 0.619,-0.599L0.174,-0.599L0.174,-0.337L0.621,-0.337C0.68,-0.337 0.721,-0.346 0.744,-0.364C0.767,-0.383 0.778,-0.419 0.778,-0.474Z" style="fill-rule:nonzero;"/>
        </g>
        <g transform="matrix(377.64378,0,0,377.64378,435.017576,773.085183)">
            <path d="M0.31,-0.674L0.605,-0.674C0.744,-0.674 0.833,-0.656 0.872,-0.619C0.91,-0.582 0.93,-0.495 0.93,-0.36L0.93,-0.315C0.93,-0.267 0.927,-0.216 0.921,-0.164C0.916,-0.111 0.897,-0.07 0.865,-0.041C0.832,-0.012 0.784,0.002 0.719,0.002C0.699,0.004 0.674,0.005 0.642,0.006C0.611,0.007 0.582,0.007 0.554,0.007L0.387,0.007C0.346,0.007 0.307,0.005 0.27,0.001C0.232,-0.003 0.2,-0.01 0.175,-0.021C0.149,-0.032 0.128,-0.05 0.112,-0.077C0.095,-0.103 0.085,-0.137 0.08,-0.18C0.075,-0.222 0.073,-0.271 0.073,-0.329C0.073,-0.383 0.074,-0.422 0.075,-0.446C0.076,-0.47 0.082,-0.503 0.091,-0.548C0.101,-0.592 0.125,-0.624 0.162,-0.644C0.199,-0.664 0.249,-0.674 0.31,-0.674ZM0.327,-0.067L0.499,-0.063L0.582,-0.063C0.629,-0.063 0.677,-0.065 0.725,-0.07C0.773,-0.075 0.805,-0.091 0.821,-0.118C0.836,-0.145 0.844,-0.185 0.844,-0.239L0.846,-0.377C0.846,-0.419 0.844,-0.455 0.841,-0.486C0.838,-0.517 0.83,-0.541 0.819,-0.557C0.808,-0.574 0.793,-0.584 0.774,-0.589C0.756,-0.594 0.737,-0.598 0.719,-0.599C0.7,-0.601 0.679,-0.602 0.658,-0.602L0.501,-0.604L0.346,-0.602C0.27,-0.602 0.22,-0.592 0.196,-0.572C0.172,-0.553 0.16,-0.506 0.16,-0.432L0.157,-0.332L0.157,-0.283C0.157,-0.198 0.166,-0.141 0.184,-0.112C0.202,-0.082 0.25,-0.067 0.327,-0.067Z" style="fill-rule:nonzero;"/>
        </g>
        <g transform="matrix(377.64378,0,0,377.64378,908.205232,773.085183)">
            <path d="M0.329,-0L0.329,-0.599L-0.007,-0.599L-0.007,-0.667L0.748,-0.667L0.748,-0.599L0.41,-0.599L0.41,-0L0.329,-0Z" style="fill-rule:nonzero;"/>
        </g>
        <g transform="matrix(377.64378,0,0,377.64378,1282.827861,773.085183)">
            <path d="M0.31,-0.674L0.605,-0.674C0.744,-0.674 0.833,-0.656 0.872,-0.619C0.91,-0.582 0.93,-0.495 0.93,-0.36L0.93,-0.315C0.93,-0.267 0.927,-0.216 0.921,-0.164C0.916,-0.111 0.897,-0.07 0.865,-0.041C0.832,-0.012 0.784,0.002 0.719,0.002C0.699,0.004 0.674,0.005 0.642,0.006C0.611,0.007 0.582,0.007 0.554,0.007L0.387,0.007C0.346,0.007 0.307,0.005 0.27,0.001C0.232,-0.003 0.2,-0.01 0.175,-0.021C0.149,-0.032 0.128,-0.05 0.112,-0.077C0.095,-0.103 0.085,-0.137 0.08,-0.18C0.075,-0.222 0.073,-0.271 0.073,-0.329C0.073,-0.383 0.074,-0.422 0.075,-0.446C0.076,-0.47 0.082,-0.503 0.091,-0.548C0.101,-0.592 0.125,-0.624 0.162,-0.644C0.199,-0.664 0.249,-0.674 0.31,-0.674ZM0.327,-0.067L0.499,-0.063L0.582,-0.063C0.629,-0.063 0.677,-0.065 0.725,-0.07C0.773,-0.075 0.805,-0.091 0.821,-0.118C0.836,-0.145 0.844,-0.185 0.844,-0.239L0.846,-0.377C0.846,-0.419 0.844,-0.455 0.841,-0.486C0.838,-0.517 0.83,-0.541 0.819,-0.557C0.808,-0.574 0.793,-0.584 0.774,-0.589C0.756,-0.594 0.737,-0.598 0.719,-0.599C0.7,-0.601 0.679,-0.602 0.658,-0.602L0.501,-0.604L0.346,-0.602C0.27,-0.602 0.22,-0.592 0.196,-0.572C0.172,-0.553 0.16,-0.506 0.16,-0.432L0.157,-0.332L0.157,-0.283C0.157,-0.198 0.166,-0.141 0.184,-0.112C0.202,-0.082 0.25,-0.067 0.327,-0.067Z" style="fill-rule:nonzero;"/>
        </g>
        <g transform="matrix(377.64378,0,0,377.64378,1756.015517,773.085183)">
            <path d="M0.329,-0L0.329,-0.599L-0.007,-0.599L-0.007,-0.667L0.748,-0.667L0.748,-0.599L0.41,-0.599L0.41,-0L0.329,-0Z" style="fill-rule:nonzero;"/>
        </g>
        <g transform="matrix(377.64378,0,0,377.64378,2130.638146,773.085183)">
            <path d="M0.83,-0.667L0.445,-0.284L0.445,-0L0.364,-0L0.364,-0.284L-0.02,-0.667L0.095,-0.667L0.404,-0.354L0.715,-0.667L0.83,-0.667Z" style="fill-rule:nonzero;"/>
        </g>
        <g transform="matrix(377.64378,0,0,377.64378,2530.940553,773.085183)">
            <path d="M0.844,-0.477C0.844,-0.439 0.841,-0.405 0.836,-0.376C0.831,-0.347 0.82,-0.324 0.804,-0.308C0.789,-0.292 0.769,-0.28 0.746,-0.273C0.723,-0.265 0.688,-0.261 0.641,-0.261L0.174,-0.261L0.174,-0L0.093,-0L0.093,-0.667L0.646,-0.667C0.719,-0.667 0.77,-0.654 0.799,-0.627C0.829,-0.6 0.844,-0.55 0.844,-0.477ZM0.76,-0.473C0.76,-0.52 0.751,-0.552 0.734,-0.571C0.717,-0.59 0.685,-0.599 0.638,-0.599L0.174,-0.599L0.174,-0.328L0.592,-0.328C0.659,-0.328 0.703,-0.336 0.726,-0.353C0.749,-0.37 0.76,-0.41 0.76,-0.473Z" style="fill-rule:nonzero;"/>
        </g>
        <g transform="matrix(377.64378,0,0,377.64378,2961.832105,773.085183)">
            <rect x="0.093" y="-0.667" width="0.081" height="0.667" style="fill-rule:nonzero;"/>
        </g>
        <g transform="matrix(377.64378,0,0,377.64378,3157.073939,773.085183)">
            <path d="M0.093,-0L0.093,-0.667L0.228,-0.667L0.843,-0.064L0.843,-0.667L0.924,-0.667L0.924,-0L0.791,-0L0.174,-0.606L0.174,-0L0.093,-0Z" style="fill-rule:nonzero;"/>
        </g>
        <g transform="matrix(377.64378,0,0,377.64378,3635.548608,773.085183)">
            <path d="M0.481,-0.329L0.915,-0.329L0.916,-0.27C0.916,-0.166 0.901,-0.094 0.871,-0.053C0.84,-0.012 0.773,0.008 0.669,0.008L0.389,0.008C0.262,0.008 0.179,-0.011 0.138,-0.049C0.097,-0.086 0.077,-0.168 0.077,-0.293L0.077,-0.33C0.077,-0.46 0.092,-0.549 0.123,-0.598C0.154,-0.647 0.228,-0.671 0.346,-0.671L0.514,-0.673L0.595,-0.674L0.728,-0.669C0.792,-0.669 0.838,-0.653 0.865,-0.621C0.892,-0.589 0.905,-0.539 0.905,-0.472L0.825,-0.472C0.825,-0.531 0.813,-0.567 0.788,-0.581C0.763,-0.594 0.717,-0.601 0.65,-0.601L0.514,-0.602L0.435,-0.603L0.304,-0.598C0.253,-0.593 0.218,-0.584 0.197,-0.569C0.175,-0.554 0.165,-0.518 0.165,-0.459L0.161,-0.287C0.161,-0.215 0.166,-0.16 0.176,-0.122C0.187,-0.085 0.241,-0.066 0.338,-0.066L0.508,-0.064L0.58,-0.063L0.595,-0.063C0.626,-0.063 0.666,-0.065 0.716,-0.07C0.766,-0.075 0.798,-0.091 0.811,-0.118C0.824,-0.145 0.831,-0.193 0.831,-0.262L0.481,-0.262L0.481,-0.329Z" style="fill-rule:nonzero;"/>
        </g>
    </g>
</svg>
