<?xml version="1.0" encoding="UTF-8" standalone="no"?><!DOCTYPE svg PUBLIC "-//W3C//DTD SVG 1.1//EN" "http://www.w3.org/Graphics/SVG/1.1/DTD/svg11.dtd"><svg width="100%" height="100%" viewBox="0 0 4096 4096" version="1.1" xmlns="http://www.w3.org/2000/svg" xmlns:xlink="http://www.w3.org/1999/xlink" xml:space="preserve" xmlns:serif="http://www.serif.com/" style="fill-rule:evenodd;clip-rule:evenodd;stroke-linecap:round;stroke-miterlimit:1.5;"><g><path d="M3642.756,453.244l0,2232.658l-956.854,956.854l-2232.658,0l0,-3189.512l3189.512,0Z" style="fill:#f59e0b;stroke:#ff930b;stroke-opacity:0.92;stroke-width:31.25px;"/><g transform="matrix(1.689427,0,0,1.689427,196.267865,-224.758292)"><g transform="matrix(1041.666667,0,-183.673938,1041.666667,392.773995,1724.210265)"><path d="M0.327,-0l-0.199,-0l0,-0.168l0.191,0c0.036,0 0.067,-0.006 0.093,-0.017c0.026,-0.011 0.045,-0.031 0.058,-0.06c0.013,-0.028 0.02,-0.068 0.02,-0.118c0,-0.051 -0.007,-0.09 -0.021,-0.119c-0.014,-0.028 -0.034,-0.049 -0.06,-0.06c-0.026,-0.012 -0.058,-0.017 -0.096,-0.017l-0.188,0l0,-0.168l0.199,0c0.075,0 0.139,0.015 0.194,0.044c0.054,0.029 0.096,0.071 0.126,0.125c0.03,0.054 0.044,0.119 0.044,0.195c0,0.076 -0.015,0.14 -0.044,0.195c-0.029,0.054 -0.071,0.096 -0.125,0.125c-0.054,0.029 -0.118,0.043 -0.192,0.043Zm-0.083,-0.728l0,0.728l-0.197,-0l0,-0.728l0.197,0Z" style="fill-rule:nonzero;"/></g><g transform="matrix(1041.666667,0,-183.673938,1041.666667,1072.624256,1724.210265)"><path d="M0.047,-0l0,-0.728l0.313,0c0.054,0 0.101,0.011 0.142,0.032c0.041,0.021 0.072,0.051 0.095,0.09c0.023,0.039 0.034,0.084 0.034,0.136c0,0.052 -0.012,0.097 -0.035,0.135c-0.023,0.038 -0.056,0.067 -0.097,0.088c-0.042,0.021 -0.09,0.031 -0.146,0.031l-0.188,0l0,-0.153l0.147,0c0.023,0 0.043,-0.004 0.06,-0.012c0.017,-0.008 0.029,-0.02 0.038,-0.035c0.009,-0.015 0.013,-0.033 0.013,-0.053c0,-0.021 -0.004,-0.039 -0.013,-0.054c-0.009,-0.015 -0.021,-0.026 -0.038,-0.034c-0.017,-0.008 -0.037,-0.012 -0.06,-0.012l-0.069,0l0,0.569l-0.197,-0Z" style="fill-opacity:0.67;fill-rule:nonzero;"/></g></g></g></svg>